<?xml version="1.0" encoding="UTF-8" standalone="no"?>
<svg width="168px" height="168px" viewBox="0 0 168 168" version="1.1" xmlns="http://www.w3.org/2000/svg" xmlns:xlink="http://www.w3.org/1999/xlink" xmlns:sketch="http://www.bohemiancoding.com/sketch/ns">
    <!-- Generator: Sketch 3.2.1 (9977) - http://www.bohemiancoding.com/sketch -->
    <title>Oval 17 + Group</title>
    <desc>Created with Sketch.</desc>
    <defs></defs>
    <g id="Page-1" stroke="none" stroke-width="1" fill="none" fill-rule="evenodd" sketch:type="MSPage">
        <g id="landing" sketch:type="MSArtboardGroup" transform="translate(-559.000000, -1032.000000)">
            <g id="1.-Choose-Your-Inter-+-Tell-us-what-you're--+-Rectangle-6-+-2.-Choose-Your-Inter-+-Tell-us-what-you're--+-Rectangle-6-+-3.-Choose-Your-Inter-+-Tell-us-what-you're--+-Rectangle-6" sketch:type="MSLayerGroup" transform="translate(220.000000, 1032.000000)">
                <g id="2.-Choose-Your-Inter-+-Tell-us-what-you're--+-Rectangle-6-+-Oval-17-+-Group" transform="translate(313.000000, 0.000000)" sketch:type="MSShapeGroup">
                    <g id="Oval-17-+-Group" transform="translate(26.000000, 0.000000)">
                        <circle id="Oval-17" fill="#FFF8DC" cx="84" cy="84" r="84"></circle>
                        <g id="Group" transform="translate(29.000000, 33.000000)">
                            <path d="M69.4773333,103.269333 L78.5933333,89.0826667 C82.0453333,90.6066667 85.852,91.4693333 89.8613333,91.4693333 C105.302667,91.4693333 117.864,78.9066667 117.864,63.4666667 C117.864,48.0266667 105.302667,35.464 89.8613333,35.464 C74.42,35.464 61.8586667,48.0266667 61.8586667,63.4666667 C61.8586667,72.2373333 65.9173333,80.0706667 72.2493333,85.2093333 L63.1293333,99.404 L69.4773333,103.269333 L69.4773333,103.269333 Z M89.8613333,84.0333333 C78.52,84.0333333 69.292,74.8066667 69.292,63.4653333 C69.292,52.124 78.52,42.8973333 89.8613333,42.8973333 C101.202667,42.8973333 110.429333,52.124 110.429333,63.4653333 C110.429333,74.8066667 101.202667,84.0333333 89.8613333,84.0333333 L89.8613333,84.0333333 Z" id="Shape" fill="#FF9244"></path>
                            <path d="M49.9093333,33.8533333 C40.688,33.904 33.356,26.808 33.148,17.632 C32.9386667,8.388 40.696,0.610666667 50.0053333,0.732 C59.16,0.850666667 66.3306667,8.18133333 66.3026667,17.3933333 C66.2746667,26.688 59.1893333,33.8026667 49.9093333,33.8533333 L49.9093333,33.8533333 Z" id="Shape" fill="#DE6464"></path>
                            <path d="M29.04,34.3493333 C29.1106667,40.5106667 24.4813333,45.42 18.3746667,45.66 C11.988,45.9106667 6.82533333,40.9946667 6.768,34.6093333 C6.712,28.2653333 11.876,23.068 18.1106667,23.1906667 C24.1,23.308 28.9706667,28.2813333 29.04,34.3493333 L29.04,34.3493333 Z" id="Shape" fill="#DE6464"></path>
                            <path d="M21.84,51.1613333 C20.7786667,57.8986667 19.7946667,64.1386667 18.748,70.776 L0.774666667,70.776 C-2.992,60.1853333 10.6666667,46.296 21.84,51.1613333 L21.84,51.1613333 Z" id="Shape" fill="#DE6464"></path>
                            <path d="M57.1733333,63.096 C57.1733333,55.5333333 59.868,48.588 64.344,43.1693333 C63.504,42.6106667 62.6306667,42.0693333 61.6853333,41.568 C51.9426667,36.3973333 42.344,37.56 33.632,44.2666667 C25.564,50.4773333 21.9586667,61.5626667 24.6693333,70.8386667 L58.1426667,70.8386667 C57.512,68.36 57.1733333,65.7666667 57.1733333,63.096 L57.1733333,63.096 Z" id="Shape" fill="#DE6464"></path>
                            <path d="M88.5066667,31.7626667 C89.872,31.7626667 91.2133333,31.86 92.5333333,32.0306667 C91.4173333,27.04 87.084,23.2586667 81.8373333,23.1906667 C75.668,23.1106667 70.3226667,28.488 70.4266667,34.6693333 C70.4426667,35.5626667 70.5786667,36.4293333 70.8,37.264 C75.8413333,33.7973333 81.9413333,31.7626667 88.5066667,31.7626667 L88.5066667,31.7626667 Z" id="Shape" fill="#DE6464"></path>
                        </g>
                    </g>
                </g>
            </g>
        </g>
    </g>
</svg>