<?xml version="1.0" encoding="UTF-8" standalone="no"?>
<svg width="36px" height="28px" viewBox="0 0 36 28" version="1.1" xmlns="http://www.w3.org/2000/svg" xmlns:xlink="http://www.w3.org/1999/xlink" xmlns:sketch="http://www.bohemiancoding.com/sketch/ns">
    <!-- Generator: Sketch 3.2.2 (9983) - http://www.bohemiancoding.com/sketch -->
    <title>Group</title>
    <desc>Created with Sketch.</desc>
    <defs></defs>
    <g id="Main-Attraction" stroke="none" stroke-width="1" fill="none" fill-rule="evenodd" sketch:type="MSPage">
        <g id="Artboard-11" sketch:type="MSArtboardGroup" transform="translate(-20.000000, -734.000000)">
            <g id="Group" sketch:type="MSLayerGroup" transform="translate(0.000000, 424.000000)">
                <g id="Oval-70-+-Bitmap-3-+-Bitmap-5-+-23-answers-+-23-answers-+-434-questions-4-+-Triangle-36" transform="translate(20.000000, 214.000000)">
                    <g id="23-answers-+-23-answers-+-434-questions-4">
                        <g id="434-Heat-+-Oval-103-+-?-+-12-answers-+-Group-+-94-questions-+-Oval-104-+-?-2-+-Shape-+-?-2-+-758-Heat-+-Shape" transform="translate(0.000000, 92.000000)">
                            <g id="12-answers-+-Group" transform="translate(0.000000, 2.000000)">
                                <g id="Group" transform="translate(0.000000, 1.000000)">
                                    <g id="bulb" transform="translate(0.323195, 0.642531)" fill="#939393" sketch:type="MSShapeGroup">
                                        <path d="M14.9706842,25.9836609 C15.5070582,26.9421493 16.5492896,27.5927629 17.7476771,27.5927629 C18.9460646,27.5927629 19.9880211,26.9421493 20.52467,25.9836609 L14.9706842,25.9836609 Z M20.7718254,21.6927223 C21.3216705,21.6927223 21.8715157,21.1563549 21.8715157,20.6199876 C21.8715157,16.0608653 25.9953542,15.4416292 25.9953542,9.62445732 C25.9953542,5.18092218 22.3025943,1.57894737 17.7476771,1.57894737 C13.192485,1.57894737 9.5,5.18092218 9.5,9.62445732 C9.5,15.4416292 13.6238386,16.0608653 13.6238386,20.6199876 C13.6238386,21.1563549 14.1736837,21.6927223 14.7235288,21.6927223 L20.7718254,21.6927223 Z M21.3216705,23.8381916 C21.3216705,24.2806946 20.9505251,24.6427426 20.4969028,24.6427426 L14.9984514,24.6427426 C14.5448292,24.6427426 14.1736837,24.2806946 14.1736837,23.8381916 C14.1736837,23.3956885 14.5448292,23.0336406 14.9984514,23.0336406 L20.4969028,23.0336406 C20.9505251,23.0336406 21.3216705,23.3956885 21.3216705,23.8381916 Z M7.61126188,16.2567505 C8.00134953,16.0391032 8.12938657,15.5470475 7.8972406,15.1577134 C7.66509463,14.7683792 7.16067461,14.6291996 6.77058696,14.8468468 L2.06181238,17.4740821 C1.67172472,17.6917294 1.54368768,18.1837851 1.77583365,18.5731192 C2.00797962,18.9624533 2.51239964,19.101633 2.9024873,18.8839857 L7.61126188,16.2567505 Z M6.77058696,4.93614947 C7.16067461,5.15379677 7.66509463,5.01461709 7.8972406,4.62528295 C8.12938657,4.23594882 8.00134953,3.74389315 7.61126188,3.52624585 L2.9024873,0.899010602 C2.51239964,0.681363307 2.00797962,0.82054299 1.77583365,1.20987712 C1.54368768,1.59921126 1.67172472,2.09126693 2.06181238,2.30891422 L6.77058696,4.93614947 Z M6.47585172,10.4290083 C6.93135835,10.4290083 7.30061943,10.0687986 7.30061943,9.62445732 C7.30061943,9.18011608 6.93135835,8.81990633 6.47585172,8.81990633 L0.97740031,8.81990633 C0.52189368,8.81990633 0.152632598,9.18011608 0.152632598,9.62445732 C0.152632598,10.0687986 0.52189368,10.4290083 0.97740031,10.4290083 L6.47585172,10.4290083 Z M27.8609517,16.3647325 C27.4894396,16.1470852 27.3674996,15.6550296 27.588591,15.2656954 C27.8096824,14.8763613 28.2900824,14.7371816 28.6615945,14.9548289 L33.1461417,17.5820641 C33.5176537,17.7997114 33.6395938,18.2917671 33.4185024,18.6811012 C33.197411,19.0704354 32.717011,19.2096151 32.3454989,18.9919678 L27.8609517,16.3647325 Z M28.6615945,5.04413153 C28.2900824,5.26177882 27.8096824,5.12259914 27.588591,4.733265 C27.3674996,4.34393087 27.4894396,3.8518752 27.8609517,3.6342279 L32.3454989,1.00699265 C32.717011,0.789345358 33.197411,0.928525042 33.4185024,1.31785918 C33.6395938,1.70719331 33.5176537,2.19924898 33.1461417,2.41689627 L28.6615945,5.04413153 Z M29.1620785,10.5369904 C28.7282627,10.5369904 28.3765855,10.1767806 28.3765855,9.73243937 C28.3765855,9.28809813 28.7282627,8.92788838 29.1620785,8.92788838 L34.3986989,8.92788838 C34.8325148,8.92788838 35.184192,9.28809813 35.184192,9.73243937 C35.184192,10.1767806 34.8325148,10.5369904 34.3986989,10.5369904 L29.1620785,10.5369904 Z" id="Shape"></path>
                                    </g>
                                    <path d="M16.7708723,14.3189289 L16.17134,6.86544144 L19.9704041,6.86544144 L19.5407751,14.3189289 L16.7708723,14.3189289 Z M19.7716004,16.7243006 C19.7716004,16.9352992 19.730382,17.1331074 19.647944,17.3177312 C19.565506,17.5023549 19.4500945,17.6606015 19.3017061,17.7924756 C19.1533178,17.9243497 18.9802006,18.0298474 18.7823494,18.1089719 C18.5844982,18.1880963 18.3756584,18.227658 18.1558237,18.227658 C17.9359891,18.227658 17.7298972,18.1907338 17.5375419,18.1168843 C17.3451865,18.0430348 17.1775651,17.9375371 17.0346726,17.800388 C16.8917801,17.6632389 16.7763686,17.5049924 16.6884347,17.3256436 C16.6005009,17.1462948 16.5565346,16.951124 16.5565346,16.7401254 C16.5565346,16.5396768 16.597753,16.3471435 16.680191,16.1625197 C16.762629,15.977896 16.8752925,15.817012 17.0181851,15.6798629 C17.1610776,15.5427138 17.3314469,15.4345787 17.5292981,15.3554542 C17.7271493,15.2763297 17.9359891,15.2367681 18.1558237,15.2367681 C18.3756584,15.2367681 18.5844982,15.2763297 18.7823494,15.3554542 C18.9802006,15.4345787 19.1533178,15.5400764 19.3017061,15.6719505 C19.4500945,15.8038246 19.565506,15.9620712 19.647944,16.1466949 C19.730382,16.3313187 19.7716004,16.523852 19.7716004,16.7243006 L19.7716004,16.7243006 Z" id="!" fill="#FFFFFF" sketch:type="MSShapeGroup"></path>
                                    <g id="Line-6-+-Line-5-+-Line-4" transform="translate(27.312500, 0.375023)"></g>
                                </g>
                            </g>
                        </g>
                    </g>
                </g>
            </g>
        </g>
    </g>
</svg>