<?xml version="1.0" encoding="UTF-8" standalone="no"?>
<svg width="23px" height="18px" viewBox="0 0 23 18" version="1.1" xmlns="http://www.w3.org/2000/svg" xmlns:xlink="http://www.w3.org/1999/xlink" xmlns:sketch="http://www.bohemiancoding.com/sketch/ns">
    <!-- Generator: Sketch 3.2.2 (9983) - http://www.bohemiancoding.com/sketch -->
    <title>Group</title>
    <desc>Created with Sketch.</desc>
    <defs></defs>
    <g id="Main-Attraction" stroke="none" stroke-width="1" fill="none" fill-rule="evenodd" sketch:type="MSPage">
        <g id="FIRST-TIME-USER" sketch:type="MSArtboardGroup" transform="translate(-245.000000, -1181.000000)">
            <g id="Group-+-Line-+-Line" sketch:type="MSLayerGroup" transform="translate(200.000000, 855.000000)">
                <g id="Group" transform="translate(0.000000, 19.000000)">
                    <g id="Group-3-+-I-graduated-from-Har-+-434-Heat-+-Oval-103-+-?-+-12-answers-+-Group-+-94-questions-+-Oval-104-+-?-2-+-Shape-+-?-4">
                        <g id="434-Heat-+-Oval-103-+-?-+-12-answers-+-Group-+-94-questions-+-Oval-104-+-?-2-+-Shape-+-?-4" transform="translate(45.000000, 302.000000)">
                            <g id="12-answers-+-Group">
                                <g id="Group" transform="translate(0.000000, 5.000000)">
                                    <g id="bulb" transform="translate(0.204123, 0.406936)" fill="#FFBE28" sketch:type="MSShapeGroup">
                                        <path d="M9.45516899,16.4563186 C9.79393148,17.0633612 10.4521829,17.4754165 11.2090592,17.4754165 C11.9659355,17.4754165 12.6240134,17.0633612 12.9629495,16.4563186 L9.45516899,16.4563186 Z M13.1190476,13.7387241 C13.4663182,13.7387241 13.8135889,13.3990248 13.8135889,13.0593255 C13.8135889,10.1718813 16.4181185,9.7796985 16.4181185,6.09548964 C16.4181185,3.28125071 14.085849,1 11.2090592,1 C8.33209582,1 6,3.28125071 6,6.09548964 C6,9.7796985 8.60452962,10.1718813 8.60452962,13.0593255 C8.60452962,13.3990248 8.95180023,13.7387241 9.29907085,13.7387241 L13.1190476,13.7387241 Z M13.4663182,15.0975213 C13.4663182,15.3777733 13.2319106,15.6070703 12.9454123,15.6070703 L9.47270616,15.6070703 C9.1862079,15.6070703 8.95180023,15.3777733 8.95180023,15.0975213 C8.95180023,14.8172694 9.1862079,14.5879724 9.47270616,14.5879724 L12.9454123,14.5879724 C13.2319106,14.5879724 13.4663182,14.8172694 13.4663182,15.0975213 Z M4.80711276,10.295942 C5.05348392,10.1580987 5.13434941,9.84646342 4.98773091,9.59988513 C4.8411124,9.35330685 4.52253134,9.26515972 4.27616018,9.403003 L1.30219729,11.0669187 C1.05582614,11.2047619 0.974960641,11.5163972 1.12157915,11.7629755 C1.26819765,12.0095538 1.58677872,12.0977009 1.83314987,11.9598576 L4.80711276,10.295942 Z M4.27616018,3.126228 C4.52253134,3.26407129 4.8411124,3.17592415 4.98773091,2.92934587 C5.13434941,2.68276758 5.05348392,2.37113233 4.80711276,2.23328904 L1.83314987,0.569373381 C1.58677872,0.431530095 1.26819765,0.519677227 1.12157915,0.766255512 C0.974960641,1.0128338 1.05582614,1.32446906 1.30219729,1.46231234 L4.27616018,3.126228 Z M4.09001161,6.6050386 C4.37770001,6.6050386 4.61091754,6.37690576 4.61091754,6.09548964 C4.61091754,5.81407352 4.37770001,5.58594067 4.09001161,5.58594067 L0.617305459,5.58594067 C0.329617061,5.58594067 0.0963995354,5.81407352 0.0963995354,6.09548964 C0.0963995354,6.37690576 0.329617061,6.6050386 0.617305459,6.6050386 L4.09001161,6.6050386 Z M17.5963905,10.3643306 C17.3617513,10.2264873 17.2847366,9.91485205 17.4243733,9.66827377 C17.5640099,9.42169548 17.8674205,9.33354835 18.1020597,9.47139164 L20.9344053,11.1353073 C21.1690445,11.2731506 21.2460592,11.5847858 21.1064226,11.8313641 C20.9667859,12.0779424 20.6633753,12.1660895 20.4287362,12.0282463 L17.5963905,10.3643306 Z M18.1020597,3.19461663 C17.8674205,3.33245992 17.5640099,3.24431279 17.4243733,2.9977345 C17.2847366,2.75115622 17.3617513,2.43952096 17.5963905,2.30167767 L20.4287362,0.637762013 C20.6633753,0.499918727 20.9667859,0.58806586 21.1064226,0.834644145 C21.2460592,1.08122243 21.1690445,1.39285769 20.9344053,1.53070097 L18.1020597,3.19461663 Z M18.4181549,6.67342723 C18.1441659,6.67342723 17.922054,6.44529439 17.922054,6.16387827 C17.922054,5.88246215 18.1441659,5.65432931 18.4181549,5.65432931 L21.7254941,5.65432931 C21.999483,5.65432931 22.2215949,5.88246215 22.2215949,6.16387827 C22.2215949,6.44529439 21.999483,6.67342723 21.7254941,6.67342723 L18.4181549,6.67342723 Z" id="Shape"></path>
                                    </g>
                                    <path d="M10.5921299,9.06865496 L10.2134779,4.34811291 L12.6128868,4.34811291 L12.3415422,9.06865496 L10.5921299,9.06865496 Z M12.4873266,10.5920571 C12.4873266,10.7256895 12.4612939,10.850968 12.4092278,10.9678964 C12.3571617,11.0848248 12.2842702,11.1850476 12.1905513,11.2685679 C12.0968323,11.3520881 11.9874951,11.4189033 11.8625364,11.4690155 C11.7375778,11.5191277 11.605679,11.5441834 11.466836,11.5441834 C11.3279931,11.5441834 11.1978298,11.5207981 11.0763422,11.4740267 C10.9548546,11.4272554 10.8489885,11.3604401 10.7587406,11.2735791 C10.6684927,11.186718 10.5956012,11.0864952 10.540064,10.9729076 C10.4845269,10.85932 10.4567587,10.7357119 10.4567587,10.6020794 C10.4567587,10.4751286 10.4827914,10.3531909 10.5348575,10.2362625 C10.5869236,10.1193341 10.6580795,10.0174409 10.7483274,9.93057983 C10.8385753,9.84371875 10.946177,9.77523316 11.0711356,9.725121 C11.1960943,9.67500884 11.3279931,9.64995313 11.466836,9.64995313 C11.605679,9.64995313 11.7375778,9.67500884 11.8625364,9.725121 C11.9874951,9.77523316 12.0968323,9.84204837 12.1905513,9.92556864 C12.2842702,10.0090889 12.3571617,10.1093117 12.4092278,10.2262401 C12.4612939,10.3431685 12.4873266,10.4651063 12.4873266,10.5920571 L12.4873266,10.5920571 Z" id="!" fill="#FFFFFF" sketch:type="MSShapeGroup"></path>
                                    <g id="Line-6-+-Line-5-+-Line-4" transform="translate(17.250000, 0.237514)"></g>
                                </g>
                            </g>
                        </g>
                    </g>
                </g>
            </g>
        </g>
    </g>
</svg>