<?xml version="1.0" encoding="UTF-8" standalone="no"?>
<svg width="48px" height="48px" viewBox="0 0 48 48" version="1.1" xmlns="http://www.w3.org/2000/svg" xmlns:xlink="http://www.w3.org/1999/xlink" xmlns:sketch="http://www.bohemiancoding.com/sketch/ns">
    <!-- Generator: Sketch 3.1 (8751) - http://www.bohemiancoding.com/sketch -->
    <title>exit 4</title>
    <desc>Created with Sketch.</desc>
    <defs></defs>
    <g id="Page-1" stroke="none" stroke-width="1" fill="none" fill-rule="evenodd" sketch:type="MSPage">
        <g id="Take-Poll" sketch:type="MSArtboardGroup" transform="translate(-1329.000000, -17.000000)">
            <g id="exit-4" sketch:type="MSLayerGroup" transform="translate(1330.000000, 18.000000)">
                <g id="Red" sketch:type="MSShapeGroup">
                    <circle id="Oval-134" stroke="#FF0043" stroke-width="2" cx="23" cy="23" r="23"></circle>
                    <path d="M16.0059091,31.0615361 C15.7982602,31.0615361 15.5906113,30.9825862 15.4327116,30.823605 C15.1158307,30.5067241 15.1158307,29.9930094 15.4327116,29.6761285 L29.67721,15.4316301 C29.9940909,15.1147492 30.5078056,15.1147492 30.8246865,15.4316301 C31.1415674,15.748511 31.1415674,16.2622257 30.8246865,16.5791066 L16.5791066,30.823605 C16.4212069,30.9825862 16.213558,31.0615361 16.0059091,31.0615361 L16.0059091,31.0615361 Z" id="Shape" fill="#FF0043"></path>
                    <path d="M30.2504075,31.0615361 C30.0427586,31.0615361 29.8351097,30.9825862 29.67721,30.823605 L15.4316301,16.5791066 C15.1147492,16.2622257 15.1147492,15.748511 15.4316301,15.4316301 C15.748511,15.1147492 16.2622257,15.1147492 16.5791066,15.4316301 L30.823605,29.6761285 C31.1404859,29.9930094 31.1404859,30.5067241 30.823605,30.823605 C30.6657053,30.9825862 30.4580564,31.0615361 30.2504075,31.0615361 L30.2504075,31.0615361 Z" id="Shape" fill="#FF0043"></path>
                </g>
                <path d="M16.0059091,30.2504075 L30.2504075,16.0059091" id="Shape" fill="#000000" sketch:type="MSShapeGroup"></path>
                <path d="M16.0059091,16.0059091 L30.2504075,30.2504075" id="Shape" fill="#000000" sketch:type="MSShapeGroup"></path>
            </g>
        </g>
    </g>
</svg>