<?xml version="1.0" encoding="UTF-8" standalone="no"?>
<svg width="19px" height="19px" viewBox="0 0 19 19" version="1.1" xmlns="http://www.w3.org/2000/svg" xmlns:xlink="http://www.w3.org/1999/xlink" xmlns:sketch="http://www.bohemiancoding.com/sketch/ns">
    <!-- Generator: Sketch 3.2.1 (9977) - http://www.bohemiancoding.com/sketch -->
    <title>Rectangle 62</title>
    <desc>Created with Sketch.</desc>
    <defs></defs>
    <g id="Page-1" stroke="none" stroke-width="1" fill="none" fill-rule="evenodd" sketch:type="MSPage">
        <g id="landing" sketch:type="MSArtboardGroup" transform="translate(-573.000000, -353.000000)" fill="#564D2C">
            <g id="Rectangle-5-+-Connect-with-Faceboo-+-Rectangle-5-+-Connect-with-Faceboo" sketch:type="MSLayerGroup" transform="translate(520.000000, 342.000000)">
                <g id="Rectangle-5-+-Connect-with-Faceboo" sketch:type="MSShapeGroup">
                    <g id="Sign-up-to-Apply-+-Rectangle-62" transform="translate(53.000000, 11.000000)">
                        <path d="M0,0.994771168 C0,0.445374222 0.450925395,0 0.994771168,0 L18.0052288,0 C18.5546258,0 19,0.450925395 19,0.994771168 L19,18.0052288 C19,18.5546258 18.5490746,19 18.0052288,19 L0.994771168,19 C0.445374222,19 0,18.5490746 0,18.0052288 L0,0.994771168 Z M8.91284722,6.35807292 C9.04942293,5.11114211 10.3019002,4.25739171 11.4239149,3.97688802 L11.7269748,3.97688802 L11.7269748,3.93359375 L14.7142795,3.93359375 L14.7142795,3.97688802 L14.9740451,3.97688802 L14.9740451,6.74772135 C13.463772,6.68163574 12.7470736,6.71802408 12.4196832,7.70019531 L12.4196832,8.73925781 C12.4918403,8.69596354 12.448546,8.76812066 12.4629774,8.78255208 L14.9740451,8.78255208 L14.9740451,11.5533854 L12.4629774,11.5533854 L12.4629774,11.8564453 L12.4196832,11.8564453 L12.4196832,19 L8.78296441,19 L8.78296441,11.5533854 L6.53166233,11.5533854 C6.5749566,11.4812283 6.50279948,11.5245226 6.48836806,11.5100911 L6.48836806,8.82584635 C6.56052517,8.86914062 6.5172309,8.79698351 6.53166233,8.78255208 L8.78296441,8.78255208 L8.78296441,6.8343099 L8.82625868,6.8343099 C8.77996448,6.60455182 8.87927726,6.49235278 8.91284722,6.35807292 Z" id="Rectangle-62"></path>
                    </g>
                </g>
            </g>
        </g>
    </g>
</svg>