<?xml version="1.0" encoding="UTF-8" standalone="no"?>
<svg width="180px" height="180px" viewBox="0 0 180 180" version="1.1" xmlns="http://www.w3.org/2000/svg" xmlns:xlink="http://www.w3.org/1999/xlink" xmlns:sketch="http://www.bohemiancoding.com/sketch/ns">
    <!-- Generator: Sketch 3.2.1 (9977) - http://www.bohemiancoding.com/sketch -->
    <title>Rectangle 62</title>
    <desc>Created with Sketch.</desc>
    <defs></defs>
    <g id="Page-1" stroke="none" stroke-width="1" fill="none" fill-rule="evenodd" sketch:type="MSPage">
        <g id="landing" sketch:type="MSArtboardGroup" transform="translate(-780.000000, -397.000000)" fill="#FFFFFF">
            <g id="Group-2" sketch:type="MSLayerGroup" transform="translate(0.000000, 397.000000)">
                <g id="Group" transform="translate(279.000000, 0.000000)" sketch:type="MSShapeGroup">
                    <g id="Rectangle-47-+-Signup-for-updates-+-Rectangle-62-+-Bitmap" transform="translate(501.000000, 0.000000)">
                        <g id="Rectangle-62-+-Bitmap-2">
                            <path d="M0,5.00209719 C0,2.23951519 2.24328332,0 5.00209719,0 L174.997903,0 C177.760485,0 180,2.24328332 180,5.00209719 L180,174.997903 C180,177.760485 177.756717,180 174.997903,180 L5.00209719,180 C2.23951519,180 0,177.756717 0,174.997903 L0,5.00209719 Z M84.4375,60.234375 C85.7313752,48.4213463 97.5969492,40.3331846 108.226562,37.6757812 L111.097656,37.6757812 L111.097656,37.265625 L139.398438,37.265625 L139.398438,37.6757812 L141.859375,37.6757812 L141.859375,63.9257812 C127.551524,63.299707 120.76175,63.6444387 117.660156,72.9492188 L117.660156,82.7929688 C118.34375,82.3828125 117.933594,83.0664062 118.070312,83.203125 L141.859375,83.203125 L141.859375,109.453125 L118.070312,109.453125 L118.070312,112.324219 L117.660156,112.324219 L117.660156,180 L83.2070312,180 L83.2070312,109.453125 L61.8789062,109.453125 C62.2890625,108.769531 61.6054688,109.179688 61.46875,109.042969 L61.46875,83.6132812 C62.1523438,84.0234375 61.7421875,83.3398438 61.8789062,83.203125 L83.2070312,83.203125 L83.2070312,64.7460938 L83.6171875,64.7460938 C83.1786109,62.5694383 84.1194687,61.5065 84.4375,60.234375 Z" id="Rectangle-62"></path>
                        </g>
                    </g>
                </g>
            </g>
        </g>
    </g>
</svg>