<?xml version="1.0" encoding="UTF-8" standalone="no"?>
<svg width="168px" height="168px" viewBox="0 0 168 168" version="1.1" xmlns="http://www.w3.org/2000/svg" xmlns:xlink="http://www.w3.org/1999/xlink" xmlns:sketch="http://www.bohemiancoding.com/sketch/ns">
    <!-- Generator: Sketch 3.2.1 (9977) - http://www.bohemiancoding.com/sketch -->
    <title>Oval 17 + Group</title>
    <desc>Created with Sketch.</desc>
    <defs></defs>
    <g id="Page-1" stroke="none" stroke-width="1" fill="none" fill-rule="evenodd" sketch:type="MSPage">
        <g id="landing" sketch:type="MSArtboardGroup" transform="translate(-867.000000, -1032.000000)">
            <g id="1.-Choose-Your-Inter-+-Tell-us-what-you're--+-Rectangle-6-+-2.-Choose-Your-Inter-+-Tell-us-what-you're--+-Rectangle-6-+-3.-Choose-Your-Inter-+-Tell-us-what-you're--+-Rectangle-6" sketch:type="MSLayerGroup" transform="translate(220.000000, 1032.000000)">
                <g id="3.-Choose-Your-Inter-+-Tell-us-what-you're--+-Rectangle-6-+-Oval-17-+-Group" transform="translate(621.000000, 0.000000)" sketch:type="MSShapeGroup">
                    <g id="Oval-17-+-Group" transform="translate(26.000000, 0.000000)">
                        <circle id="Oval-17" fill="#FFF8DC" cx="84" cy="84" r="84"></circle>
                        <g id="Group" transform="translate(22.000000, 35.000000)">
                            <path d="M41.4,0 L41.4,25.6533333 L44.8754098,25.6533333 L44.8754098,3.29333333 L101.35082,3.29333333 L101.35082,100.533333 L44.8754098,100.533333 L44.8754098,73.1466667 L41.4,73.1466667 L41.4,104 L104.652459,104 L104.652459,0 L41.4,0 Z" id="Shape" fill="#555555"></path>
                            <g transform="translate(0.000000, 29.466667)" id="Rectangle-path">
                                <rect fill="#ECA93B" x="58.9508197" y="23.0533333" width="19.6360656" height="17.5066667"></rect>
                                <rect fill="#44D6C0" x="31.495082" y="21.32" width="20.504918" height="13.52"></rect>
                                <rect fill="#A269C9" x="16.0295082" y="22.36" width="9.90491803" height="8.84"></rect>
                                <rect fill="#A269C9" x="53.042623" y="1.90666667" width="25.7180328" height="14.7333333"></rect>
                                <rect fill="#6A70DC" x="13.4229508" y="4.68" width="15.2918033" height="11.44"></rect>
                                <rect fill="#EC6363" x="0.390163934" y="17.8533333" width="10.6" height="8.84"></rect>
                                <rect fill="#EC6363" x="34.6229508" y="0.52" width="12.5114754" height="16.12"></rect>
                            </g>
                        </g>
                    </g>
                </g>
            </g>
        </g>
    </g>
</svg>