<?xml version="1.0" encoding="UTF-8" standalone="no"?>
<svg width="20px" height="16px" viewBox="0 0 20 16" version="1.1" xmlns="http://www.w3.org/2000/svg" xmlns:xlink="http://www.w3.org/1999/xlink" xmlns:sketch="http://www.bohemiancoding.com/sketch/ns">
    <!-- Generator: Sketch 3.2.2 (9983) - http://www.bohemiancoding.com/sketch -->
    <title>Shape + ? 2</title>
    <desc>Created with Sketch.</desc>
    <defs></defs>
    <g id="Main-Attraction" stroke="none" stroke-width="1" fill="none" fill-rule="evenodd" sketch:type="MSPage">
        <g id="FIRST-TIME-USER" sketch:type="MSArtboardGroup" transform="translate(-246.000000, -1214.000000)">
            <g id="Group-+-Line-+-Line" sketch:type="MSLayerGroup" transform="translate(200.000000, 855.000000)">
                <g id="Group" transform="translate(0.000000, 19.000000)" sketch:type="MSShapeGroup">
                    <g id="Group-3-+-I-graduated-from-Har-+-434-Heat-+-Oval-103-+-?-+-12-answers-+-Group-+-94-questions-+-Oval-104-+-?-2-+-Shape-+-?-4">
                        <g id="434-Heat-+-Oval-103-+-?-+-12-answers-+-Group-+-94-questions-+-Oval-104-+-?-2-+-Shape-+-?-4" transform="translate(45.000000, 302.000000)">
                            <g id="94-questions-+-Oval-104-+-?-2-+-Shape-+-?-2" transform="translate(1.000000, 32.000000)">
                                <g id="Shape-+-?-2" transform="translate(0.000000, 6.000000)">
                                    <path d="M3.07441124,15.7731955 C2.96891928,15.7649064 2.84625924,15.747405 2.67680116,15.6990608 C2.79690479,15.502427 2.88294602,15.3317647 2.93827935,15.2152941 C3.33516824,14.3818824 3.78546563,13.5712745 3.78546563,12.6493921 C1.68013229,11.2849215 0.802976996,9.26117644 0.802976996,7.20823526 C0.802976996,3.23364703 4.71405713,0 10.2280571,0 C15.7418349,0 19.4250801,3.23364703 19.4250801,7.20823526 C19.4250801,11.1828235 15.7418349,14.4164706 10.2280571,14.4164706 C9.28739046,14.4164706 8.35405713,14.3221176 7.45139046,14.136 C6.3007238,15.2021176 4.83916824,15.7868235 3.31427935,15.7868235 C3.23502914,15.7805883 3.16042724,15.7799542 3.07441124,15.7731955 Z" id="Shape" fill="#308DFF" transform="translate(10.114029, 7.893412) scale(-1, 1) translate(-10.114029, -7.893412) "></path>
                                    <path d="M12.575405,5.95354777 C12.5145635,6.15574635 12.4290066,6.34176625 12.3187315,6.51161306 C12.2084564,6.68145986 12.0753677,6.84119435 11.9194616,6.99082129 C11.7635554,7.14044824 11.5867376,7.29613881 11.389003,7.45789768 C11.2673201,7.56304094 11.166553,7.65605089 11.0866986,7.73693032 C11.0068442,7.81780975 10.9441024,7.90070993 10.8984714,7.98563333 C10.8528403,8.07055673 10.8205188,8.15952277 10.8015058,8.25253412 C10.7824929,8.34554547 10.7729865,8.45675302 10.7729865,8.58616011 L10.7729865,8.90158832 L8.99338353,8.90158832 L8.99338353,8.44057786 C8.99338353,8.23029134 9.01239619,8.04224948 9.05042209,7.87644664 C9.08844798,7.71064381 9.14548597,7.55899715 9.22153776,7.42150212 C9.29758955,7.28400708 9.3907516,7.15055802 9.50102669,7.02115093 C9.61130179,6.89174384 9.74248916,6.75829478 9.89459274,6.62079974 L10.2710472,6.24471227 C10.4003353,6.12339312 10.5106087,5.99600993 10.6018709,5.86255886 C10.693133,5.7291078 10.7387634,5.56937332 10.7387634,5.38335063 C10.7387634,5.12453645 10.664614,4.91829699 10.516313,4.76462607 C10.368012,4.61095515 10.1645765,4.53412084 9.90600046,4.53412084 C9.58658293,4.53412084 9.34702339,4.6493723 9.18731462,4.87987868 C9.02760586,5.11038506 8.94014762,5.37121732 8.92493726,5.66238327 L7.11111111,5.45614175 C7.15674219,5.01939282 7.26131183,4.63522128 7.42482318,4.30361561 C7.58833453,3.97200994 7.79937509,3.697024 8.05795117,3.47864953 C8.31652726,3.26027507 8.60932227,3.09649667 8.93634497,2.98730944 C9.26336767,2.87812221 9.60939813,2.82352941 9.97444673,2.82352941 C10.3166798,2.82352941 10.6494014,2.87003439 10.9726215,2.96304573 C11.2958416,3.05605708 11.5829328,3.20163787 11.8339037,3.39979248 C12.0848746,3.59794709 12.2864089,3.85069152 12.4385124,4.15803336 C12.590616,4.4653752 12.6666667,4.82932719 12.6666667,5.24990023 C12.6666667,5.51680236 12.6362464,5.75134919 12.575405,5.95354777 Z M11.0011408,10.6121797 C11.0011408,10.9356975 10.8946699,11.2086615 10.6817248,11.4310799 C10.4687798,11.6534983 10.2064051,11.7647059 9.89459274,11.7647059 C9.74248916,11.7647059 9.59989419,11.7363985 9.46680356,11.6797829 C9.33371292,11.6231673 9.21583442,11.5422891 9.1131645,11.4371458 C9.01049458,11.3320026 8.92874013,11.2106852 8.8678987,11.0731902 C8.80705727,10.9356952 8.77663701,10.7860705 8.77663701,10.6243116 C8.77663701,10.4706407 8.805156,10.3230379 8.86219484,10.1814989 C8.91923369,10.0399599 8.99908687,9.91662063 9.10175679,9.81147737 C9.20442671,9.70633411 9.32420648,9.62343394 9.4610997,9.56277436 C9.59799293,9.50211479 9.74248916,9.47178546 9.89459274,9.47178546 C10.0466963,9.47178546 10.1892913,9.50211479 10.3223819,9.56277436 C10.4554726,9.62343394 10.5733511,9.70431216 10.676021,9.80541145 C10.7786909,9.90651074 10.8585441,10.0278281 10.9155829,10.1693671 C10.9726218,10.3109061 11.0011408,10.4585088 11.0011408,10.6121797 L11.0011408,10.6121797 Z" id="?-2" fill="#FFFFFF"></path>
                                </g>
                            </g>
                        </g>
                    </g>
                </g>
            </g>
        </g>
    </g>
</svg>