<?xml version="1.0" encoding="UTF-8" standalone="no"?>
<svg width="36px" height="30px" viewBox="0 0 36 30" version="1.1" xmlns="http://www.w3.org/2000/svg" xmlns:xlink="http://www.w3.org/1999/xlink" xmlns:sketch="http://www.bohemiancoding.com/sketch/ns">
    <!-- Generator: Sketch 3.2.2 (9983) - http://www.bohemiancoding.com/sketch -->
    <title>Shape + ? 2</title>
    <desc>Created with Sketch.</desc>
    <defs></defs>
    <g id="Main-Attraction" stroke="none" stroke-width="1" fill="none" fill-rule="evenodd" sketch:type="MSPage">
        <g id="Artboard-11" sketch:type="MSArtboardGroup" transform="translate(-212.000000, -733.000000)">
            <g id="Group" sketch:type="MSLayerGroup" transform="translate(0.000000, 424.000000)">
                <g id="Oval-70-+-Bitmap-3-+-Bitmap-5-+-23-answers-+-23-answers-+-434-questions-4-+-Triangle-36" transform="translate(20.000000, 214.000000)" sketch:type="MSShapeGroup">
                    <g id="23-answers-+-23-answers-+-434-questions-4">
                        <g id="434-Heat-+-Oval-103-+-?-+-12-answers-+-Group-+-94-questions-+-Oval-104-+-?-2-+-Shape-+-?-2-+-758-Heat-+-Shape" transform="translate(0.000000, 92.000000)">
                            <g id="83-questions-+-Shape-+-?-2" transform="translate(192.000000, 2.000000)">
                                <g id="Shape-+-?-2" transform="translate(0.000000, 1.000000)">
                                    <path d="M4.84138135,29.5747415 C4.64094663,29.5591995 4.40789255,29.5263844 4.08592221,29.435739 C4.3141191,29.0670507 4.47759744,28.7470588 4.58273077,28.5286765 C5.33681966,26.9660294 6.19238469,25.4461397 6.19238469,23.7176102 C2.19225136,21.1592279 0.525656292,17.3647058 0.525656292,13.5154411 C0.525656292,6.06308818 7.95670855,0 18.4333085,0 C28.9094863,0 35.9076523,6.06308818 35.9076523,13.5154411 C35.9076523,20.9677941 28.9094863,27.0308824 18.4333085,27.0308824 C16.6460419,27.0308824 14.8727085,26.8539706 13.1576419,26.505 C10.9713752,28.5039706 8.19441966,29.6002941 5.29713077,29.6002941 C5.14655537,29.588603 5.00481176,29.5874142 4.84138135,29.5747415 Z" id="Shape" fill="#939393" transform="translate(18.216654, 14.800147) scale(-1, 1) translate(-18.216654, -14.800147) "></path>
                                    <path d="M22.8932695,11.1629021 C22.7776707,11.5420244 22.6151125,11.8908117 22.4055898,12.2092745 C22.1960671,12.5277372 21.9431987,12.8272394 21.646977,13.1077899 C21.3507552,13.3883405 21.0148015,13.6802603 20.6391056,13.9835581 C20.4079082,14.1807018 20.2164507,14.3550954 20.0647274,14.5067444 C19.913004,14.6583933 19.7937946,14.8138311 19.7070956,14.9730625 C19.6203966,15.1322939 19.5589857,15.2991052 19.5228611,15.4735015 C19.4867365,15.6478978 19.4686744,15.8564119 19.4686744,16.0990502 L19.4686744,16.6904781 L16.0874287,16.6904781 L16.0874287,15.8260835 C16.0874287,15.4317963 16.1235528,15.0792178 16.195802,14.7683375 C16.2680512,14.4574571 16.3764233,14.1731197 16.5209217,13.9153165 C16.6654201,13.6575133 16.842428,13.4072963 17.0519507,13.164658 C17.2614734,12.9220197 17.5107294,12.6718027 17.7997262,12.4139995 L18.5149897,11.7088355 C18.760637,11.4813621 18.9701566,11.2425186 19.1435546,10.9922979 C19.3169527,10.7420771 19.4036505,10.442575 19.4036505,10.0937824 C19.4036505,9.60850583 19.2627666,9.22180685 18.9809948,8.93367388 C18.6992229,8.6455409 18.3126954,8.50147657 17.8214009,8.50147657 C17.2145076,8.50147657 16.7593444,8.71757306 16.4558978,9.14977253 C16.1524511,9.58197199 15.9862805,10.0710325 15.9573808,10.6169686 L12.5111111,10.2302658 C12.5978102,9.41136154 12.7964925,8.6910399 13.107164,8.06927927 C13.4178356,7.44751864 13.8188127,6.93192 14.3101072,6.52246787 C14.8014018,6.11301575 15.3577123,5.80593127 15.9790554,5.6012052 C16.6003986,5.39647914 17.2578564,5.29411765 17.9514488,5.29411765 C18.6016916,5.29411765 19.2338626,5.38131448 19.8479808,5.55571075 C20.462099,5.73010703 21.0075723,6.00307101 21.4844171,6.3746109 C21.9612618,6.74615079 22.3441768,7.2200466 22.6331736,7.79631255 C22.9221704,8.37257851 23.0666667,9.05498847 23.0666667,9.84356293 C23.0666667,10.3440044 23.0088682,10.7837797 22.8932695,11.1629021 Z M19.9021675,19.897837 C19.9021675,20.5044328 19.6998727,21.0162402 19.2952772,21.4332748 C18.8906817,21.8503094 18.3921697,22.0588235 17.7997262,22.0588235 C17.5107294,22.0588235 17.239799,22.0057472 16.9869268,21.8995929 C16.7340546,21.7934387 16.5100854,21.641792 16.3150125,21.4446484 C16.1199397,21.2475048 15.9646063,21.0200348 15.8490075,20.7622316 C15.7334088,20.5044284 15.6756103,20.2238821 15.6756103,19.9205842 C15.6756103,19.6324513 15.7297964,19.3556961 15.8381702,19.0903105 C15.946544,18.8249248 16.0982651,18.5936637 16.2933379,18.3965201 C16.4884107,18.1993765 16.7159923,18.0439386 16.9760894,17.9302019 C17.2361866,17.8164652 17.5107294,17.7595977 17.7997262,17.7595977 C18.088723,17.7595977 18.3596535,17.8164652 18.6125257,17.9302019 C18.8653979,18.0439386 19.089367,18.1955853 19.2844399,18.3851465 C19.4795127,18.5747076 19.6312338,18.8021776 19.7396076,19.0675633 C19.8479814,19.3329489 19.9021675,19.609704 19.9021675,19.897837 L19.9021675,19.897837 Z" id="?-2" fill="#FFFFFF"></path>
                                </g>
                            </g>
                        </g>
                    </g>
                </g>
            </g>
        </g>
    </g>
</svg>